<svg width="84" height="46" viewBox="0 0 84 46" fill="none" xmlns="http://www.w3.org/2000/svg">
<path d="M40.1333 5.61352C41.0667 4.36607 42.9333 4.36607 43.8666 5.61352L50.3999 14.3457C53.1999 18.088 58.7999 18.088 61.5998 14.3457L67.7829 6.08159C68.7663 4.76723 70.7596 4.8521 71.6282 6.24532L79.6877 19.1717C80.3707 20.2672 81.8102 20.6002 82.903 19.9155C83.9958 19.2309 84.328 17.7879 83.645 16.6924L75.5855 3.76602C72.9795 -0.413649 66.9998 -0.668261 64.0496 3.27483L57.8665 11.5389C56.9332 12.7864 55.0666 12.7864 54.1332 11.5389L47.6 2.80676C44.8 -0.935588 39.2 -0.935586 36.4 2.80676L29.8668 11.5389C28.9334 12.7864 27.0668 12.7864 26.1335 11.5389L19.9504 3.27483C17.0002 -0.668262 11.0204 -0.413649 8.41447 3.76602L0.35498 16.6924C-0.328005 17.7879 0.00419622 19.2309 1.09697 19.9155C2.18975 20.6002 3.62929 20.2672 4.31228 19.1717L12.3718 6.24532C13.2404 4.8521 15.2337 4.76723 16.2171 6.08159L22.4001 14.3457C25.2001 18.088 30.8001 18.088 33.6001 14.3457L40.1333 5.61352Z" fill="url(#paint0_linear_1_127)"/>
<path d="M40.1333 31.3422C41.0667 30.0947 42.9333 30.0947 43.8666 31.3422L50.3999 40.0743C53.1999 43.8166 58.7999 43.8166 61.5998 40.0743L67.7829 31.8102C68.7663 30.4959 70.7596 30.5807 71.6282 31.974L79.6877 44.9004C80.3707 45.9958 81.8102 46.3288 82.903 45.6442C83.9958 44.9595 84.328 43.5165 83.645 42.4211L75.5855 29.4947C72.9795 25.315 66.9998 25.0604 64.0496 29.0035L57.8665 37.2675C56.9332 38.515 55.0666 38.515 54.1332 37.2675L47.6 28.5354C44.8 24.793 39.2 24.793 36.4 28.5354L29.8668 37.2675C28.9334 38.515 27.0668 38.515 26.1335 37.2675L19.9504 29.0035C17.0002 25.0604 11.0204 25.315 8.41447 29.4947L0.35498 42.4211C-0.328005 43.5165 0.00419622 44.9595 1.09697 45.6442C2.18975 46.3288 3.62929 45.9958 4.31228 44.9004L12.3718 31.974C13.2404 30.5807 15.2337 30.4959 16.2171 31.8102L22.4001 40.0743C25.2001 43.8166 30.8001 43.8166 33.6001 40.0743L40.1333 31.3422Z" fill="url(#paint1_linear_1_127)"/>
<path d="M40.1333 5.61352C41.0667 4.36607 42.9333 4.36607 43.8666 5.61352L50.3999 14.3457C53.1999 18.088 58.7999 18.088 61.5998 14.3457L67.7829 6.08159C68.7663 4.76723 70.7596 4.8521 71.6282 6.24532L79.6877 19.1717C80.3707 20.2672 81.8102 20.6002 82.903 19.9155C83.9958 19.2309 84.328 17.7879 83.645 16.6924L75.5855 3.76602C72.9795 -0.413649 66.9998 -0.668261 64.0496 3.27483L57.8665 11.5389C56.9332 12.7864 55.0666 12.7864 54.1332 11.5389L47.6 2.80676C44.8 -0.935588 39.2 -0.935586 36.4 2.80676L29.8668 11.5389C28.9334 12.7864 27.0668 12.7864 26.1335 11.5389L19.9504 3.27483C17.0002 -0.668262 11.0204 -0.413649 8.41447 3.76602L0.35498 16.6924C-0.328005 17.7879 0.00419622 19.2309 1.09697 19.9155C2.18975 20.6002 3.62929 20.2672 4.31228 19.1717L12.3718 6.24532C13.2404 4.8521 15.2337 4.76723 16.2171 6.08159L22.4001 14.3457C25.2001 18.088 30.8001 18.088 33.6001 14.3457L40.1333 5.61352Z" stroke="url(#paint2_linear_1_127)"/>
<path d="M40.1333 31.3422C41.0667 30.0947 42.9333 30.0947 43.8666 31.3422L50.3999 40.0743C53.1999 43.8166 58.7999 43.8166 61.5998 40.0743L67.7829 31.8102C68.7663 30.4959 70.7596 30.5807 71.6282 31.974L79.6877 44.9004C80.3707 45.9958 81.8102 46.3288 82.903 45.6442C83.9958 44.9595 84.328 43.5165 83.645 42.4211L75.5855 29.4947C72.9795 25.315 66.9998 25.0604 64.0496 29.0035L57.8665 37.2675C56.9332 38.515 55.0666 38.515 54.1332 37.2675L47.6 28.5354C44.8 24.793 39.2 24.793 36.4 28.5354L29.8668 37.2675C28.9334 38.515 27.0668 38.515 26.1335 37.2675L19.9504 29.0035C17.0002 25.0604 11.0204 25.315 8.41447 29.4947L0.35498 42.4211C-0.328005 43.5165 0.00419622 44.9595 1.09697 45.6442C2.18975 46.3288 3.62929 45.9958 4.31228 44.9004L12.3718 31.974C13.2404 30.5807 15.2337 30.4959 16.2171 31.8102L22.4001 40.0743C25.2001 43.8166 30.8001 43.8166 33.6001 40.0743L40.1333 31.3422Z" stroke="url(#paint3_linear_1_127)"/>
<defs>
<linearGradient id="paint0_linear_1_127" x1="42" y1="0" x2="42" y2="46" gradientUnits="userSpaceOnUse">
<stop offset="0.5" stop-color="#F7A7E4"/>
<stop offset="0.5" stop-color="#1FA195"/>
</linearGradient>
<linearGradient id="paint1_linear_1_127" x1="42" y1="0" x2="42" y2="46" gradientUnits="userSpaceOnUse">
<stop offset="0.5" stop-color="#F7A7E4"/>
<stop offset="0.5" stop-color="#1FA195"/>
</linearGradient>
<linearGradient id="paint2_linear_1_127" x1="42" y1="0" x2="42" y2="46" gradientUnits="userSpaceOnUse">
<stop offset="0.5" stop-color="#F7A7E4"/>
<stop offset="0.5" stop-color="#1FA195"/>
</linearGradient>
<linearGradient id="paint3_linear_1_127" x1="42" y1="0" x2="42" y2="46" gradientUnits="userSpaceOnUse">
<stop offset="0.5" stop-color="#F7A7E4"/>
<stop offset="0.5" stop-color="#1FA195"/>
</linearGradient>
</defs>
</svg>
