<svg width="64" height="35" viewBox="0 0 64 35" fill="none" xmlns="http://www.w3.org/2000/svg">
<path d="M30.5778 4.27116C31.2889 3.32201 32.7111 3.32201 33.4222 4.27116L38.3999 10.9152C40.5333 13.7626 44.7999 13.7626 46.9332 10.9152L51.6441 4.6273C52.3934 3.62724 53.9121 3.69181 54.5739 4.75187L60.7145 14.5872C61.2348 15.4207 62.3316 15.674 63.1642 15.1531C63.9968 14.6322 64.2499 13.5342 63.7295 12.7008L57.589 2.86545C55.6035 -0.314733 51.0475 -0.508459 48.7997 2.49172L44.0888 8.7796C43.3777 9.72875 41.9555 9.72875 41.2444 8.7796L36.2666 2.13558C34.1333 -0.71186 29.8667 -0.711859 27.7334 2.13558L22.7556 8.7796C22.0445 9.72875 20.6223 9.72875 19.9112 8.7796L15.2003 2.49172C12.9525 -0.50846 8.39653 -0.314733 6.41102 2.86545L0.270461 12.7008C-0.249909 13.5342 0.00319712 14.6322 0.835789 15.1531C1.66838 15.674 2.76517 15.4207 3.28554 14.5872L9.4261 4.75187C10.0879 3.69181 11.6066 3.62724 12.3559 4.6273L17.0668 10.9152C19.2001 13.7626 23.4667 13.7626 25.6 10.9152L30.5778 4.27116Z" fill="url(#paint0_linear_1_127)"/>
<path d="M30.5778 23.8473C31.2889 22.8981 32.7111 22.8981 33.4222 23.8473L38.3999 30.4913C40.5333 33.3388 44.7999 33.3388 46.9332 30.4913L51.6441 24.2034C52.3934 23.2034 53.9121 23.2679 54.5739 24.328L60.7145 34.1633C61.2348 34.9968 62.3316 35.2502 63.1642 34.7293C63.9968 34.2083 64.2499 33.1104 63.7295 32.2769L57.589 22.4416C55.6035 19.2614 51.0475 19.0677 48.7997 22.0679L44.0888 28.3557C43.3777 29.3049 41.9555 29.3049 41.2444 28.3557L36.2666 21.7117C34.1333 18.8643 29.8667 18.8643 27.7334 21.7117L22.7556 28.3557C22.0445 29.3049 20.6223 29.3049 19.9112 28.3557L15.2003 22.0679C12.9525 19.0677 8.39653 19.2614 6.41102 22.4416L0.270461 32.2769C-0.249909 33.1104 0.00319712 34.2083 0.835789 34.7293C1.66838 35.2502 2.76517 34.9968 3.28554 34.1633L9.4261 24.328C10.0879 23.2679 11.6066 23.2034 12.3559 24.2034L17.0668 30.4913C19.2001 33.3388 23.4667 33.3388 25.6 30.4913L30.5778 23.8473Z" fill="url(#paint1_linear_1_127)"/>
<path d="M30.5778 4.27116C31.2889 3.32201 32.7111 3.32201 33.4222 4.27116L38.3999 10.9152C40.5333 13.7626 44.7999 13.7626 46.9332 10.9152L51.6441 4.6273C52.3934 3.62724 53.9121 3.69181 54.5739 4.75187L60.7145 14.5872C61.2348 15.4207 62.3316 15.674 63.1642 15.1531C63.9968 14.6322 64.2499 13.5342 63.7295 12.7008L57.589 2.86545C55.6035 -0.314733 51.0475 -0.508459 48.7997 2.49172L44.0888 8.7796C43.3777 9.72875 41.9555 9.72875 41.2444 8.7796L36.2666 2.13558C34.1333 -0.71186 29.8667 -0.711859 27.7334 2.13558L22.7556 8.7796C22.0445 9.72875 20.6223 9.72875 19.9112 8.7796L15.2003 2.49172C12.9525 -0.50846 8.39653 -0.314733 6.41102 2.86545L0.270461 12.7008C-0.249909 13.5342 0.00319712 14.6322 0.835789 15.1531C1.66838 15.674 2.76517 15.4207 3.28554 14.5872L9.4261 4.75187C10.0879 3.69181 11.6066 3.62724 12.3559 4.6273L17.0668 10.9152C19.2001 13.7626 23.4667 13.7626 25.6 10.9152L30.5778 4.27116Z" stroke="url(#paint2_linear_1_127)"/>
<path d="M30.5778 23.8473C31.2889 22.8981 32.7111 22.8981 33.4222 23.8473L38.3999 30.4913C40.5333 33.3388 44.7999 33.3388 46.9332 30.4913L51.6441 24.2034C52.3934 23.2034 53.9121 23.2679 54.5739 24.328L60.7145 34.1633C61.2348 34.9968 62.3316 35.2502 63.1642 34.7293C63.9968 34.2083 64.2499 33.1104 63.7295 32.2769L57.589 22.4416C55.6035 19.2614 51.0475 19.0677 48.7997 22.0679L44.0888 28.3557C43.3777 29.3049 41.9555 29.3049 41.2444 28.3557L36.2666 21.7117C34.1333 18.8643 29.8667 18.8643 27.7334 21.7117L22.7556 28.3557C22.0445 29.3049 20.6223 29.3049 19.9112 28.3557L15.2003 22.0679C12.9525 19.0677 8.39653 19.2614 6.41102 22.4416L0.270461 32.2769C-0.249909 33.1104 0.00319712 34.2083 0.835789 34.7293C1.66838 35.2502 2.76517 34.9968 3.28554 34.1633L9.4261 24.328C10.0879 23.2679 11.6066 23.2034 12.3559 24.2034L17.0668 30.4913C19.2001 33.3388 23.4667 33.3388 25.6 30.4913L30.5778 23.8473Z" stroke="url(#paint3_linear_1_127)"/>
<defs>
<linearGradient id="paint0_linear_1_127" x1="32" y1="0" x2="32" y2="35" gradientUnits="userSpaceOnUse">
<stop offset="0.5" stop-color="#F7A7E4"/>
<stop offset="0.5" stop-color="#1FA195"/>
</linearGradient>
<linearGradient id="paint1_linear_1_127" x1="32" y1="0" x2="32" y2="35" gradientUnits="userSpaceOnUse">
<stop offset="0.5" stop-color="#F7A7E4"/>
<stop offset="0.5" stop-color="#1FA195"/>
</linearGradient>
<linearGradient id="paint2_linear_1_127" x1="32" y1="0" x2="32" y2="35" gradientUnits="userSpaceOnUse">
<stop offset="0.5" stop-color="#F7A7E4"/>
<stop offset="0.5" stop-color="#1FA195"/>
</linearGradient>
<linearGradient id="paint3_linear_1_127" x1="32" y1="0" x2="32" y2="35" gradientUnits="userSpaceOnUse">
<stop offset="0.5" stop-color="#F7A7E4"/>
<stop offset="0.5" stop-color="#1FA195"/>
</linearGradient>
</defs>
</svg>
