<svg width="64" height="66" viewBox="0 0 64 66" fill="none" xmlns="http://www.w3.org/2000/svg">
<path d="M37.1424 7.68586C41.0308 3.08705 44.8928 1.14651 47.9564 0.406275C49.4752 0.0393101 50.7632 -0.0243311 51.7156 0.00700885C52.1917 0.0226731 52.5797 0.0619361 52.8628 0.0969612C52.9746 0.110791 53.0738 0.1245 53.1432 0.134085L53.1859 0.13997L53.2007 0.14197C55.4825 0.16834 58.1085 1.21795 60.1656 2.92099C62.2751 4.66745 64 7.28613 64 10.5429C64 13.3288 63.5121 15.8775 62.1092 18.0013C60.6897 20.1503 58.4792 21.646 55.4627 22.5974C54.5513 22.8848 53.5804 22.376 53.2941 21.4608C53.0078 20.5457 53.5146 19.5708 54.426 19.2833C56.904 18.5018 58.3564 17.3981 59.2262 16.0813C60.1127 14.7393 60.5405 12.9557 60.5405 10.5429C60.5405 8.60086 59.5183 6.88726 57.9648 5.60113C56.3853 4.29346 54.4738 3.61515 53.1129 3.61515C52.95 3.61515 52.7687 3.58902 52.7268 3.58297L52.7196 3.58194L52.6627 3.57413C52.5946 3.56472 52.5248 3.5551 52.4397 3.54457C52.2304 3.51867 51.9492 3.49024 51.6023 3.47883C50.909 3.45602 49.9365 3.50068 48.7657 3.78356C46.4504 4.343 43.2173 5.86829 39.7797 9.93402C37.3971 12.7519 35.6549 16.5533 34.5094 20.2828C33.3638 24.0124 32.8649 27.5051 32.8649 29.6049V64.2632C32.8649 65.2224 32.0904 66 31.1351 66C30.1798 66 29.4054 65.2224 29.4054 64.2632V29.5263C29.4054 27.4089 28.932 23.8984 27.8484 20.1547C26.7641 16.4083 25.1157 12.5935 22.8655 9.76919C19.6205 5.69629 16.584 4.18699 14.4382 3.63678C13.3514 3.35811 12.451 3.31461 11.8116 3.33694C11.4916 3.34812 11.2321 3.37594 11.0387 3.40135C10.9597 3.41172 10.8955 3.42111 10.8313 3.43052L10.7768 3.43847L10.7721 3.43919C10.7383 3.44443 10.5497 3.47368 10.3784 3.47368C9.15067 3.47368 7.37887 4.12907 5.89579 5.4321C4.44543 6.70639 3.45946 8.43189 3.45946 10.4211C3.45946 12.8545 3.86703 14.6593 4.71005 16.0137C5.53107 17.3327 6.88905 18.4224 9.19564 19.1944C10.1019 19.4977 10.5917 20.4813 10.2896 21.3913C9.98752 22.3014 9.00794 22.7932 8.10166 22.4898C5.21906 21.525 3.11758 20.0094 1.77644 17.8547C0.457295 15.7354 0 13.1981 0 10.4211C0 7.19968 1.60863 4.58307 3.61772 2.81789C5.56534 1.10672 8.07246 0.0316111 10.2807 0.000681056L15.2942 0.271103C18.2286 1.02352 21.893 2.9879 25.5669 7.5992C28.2067 10.9125 30.0178 15.203 31.1704 19.1853C31.1795 19.2165 31.1885 19.2478 31.1974 19.279C31.1995 19.2723 31.2015 19.2657 31.2036 19.259C32.4266 15.2773 34.3473 10.9917 37.1424 7.68586Z" fill="url(#paint0_linear_1_157)"/>
<defs>
<linearGradient id="paint0_linear_1_157" x1="32" y1="0" x2="32" y2="66" gradientUnits="userSpaceOnUse">
<stop offset="0.5" stop-color="#F7A7E4"/>
<stop offset="0.5" stop-color="#1FA195"/>
</linearGradient>
</defs>
</svg>
