<svg width="64" height="64" viewBox="0 0 64 64" fill="none" xmlns="http://www.w3.org/2000/svg">
<path d="M50.5264 24.0791C57.6915 24.0791 63.5 29.8876 63.5 37.0527C63.5 40.1357 62.4255 42.9664 60.6299 45.1924L60.5908 45.2402L60.5654 45.2949C55.5517 56.0485 44.6454 63.5 32 63.5C24.0045 63.5 16.7072 60.5199 11.1523 55.6113L11.3047 55.5752L10.4795 54.9395C10.1973 54.7221 10.0166 54.3819 10.0166 54C10.0168 53.3462 10.5473 52.8164 11.2012 52.8164C11.4284 52.8164 11.707 52.8675 11.9834 52.9697C11.9834 52.9697 12.0042 52.9791 12.0498 53.0088C12.0934 53.0372 12.1478 53.0772 12.2129 53.1299C12.3435 53.2356 12.5 53.3775 12.6729 53.5469C13.0177 53.8849 13.406 54.3075 13.7568 54.7041L13.7861 54.7363L13.8193 54.7637C18.8024 58.7486 25.1237 61.1318 32 61.1318C41.1504 61.1318 49.3154 56.9118 54.6553 50.3145L55.6553 49.0791L54.1289 49.5195C52.9858 49.8492 51.7769 50.0264 50.5264 50.0264C43.3612 50.0264 37.5528 44.2179 37.5527 37.0527C37.5527 29.8876 43.3612 24.0791 50.5264 24.0791ZM50.5264 26.4473C44.6692 26.4473 39.9209 31.1956 39.9209 37.0527C39.921 42.9098 44.6693 47.6582 50.5264 47.6582C53.6713 47.6582 56.4941 46.2859 58.4355 44.1123L58.4434 44.1113L58.5479 43.9902L58.5469 43.9893L58.5684 43.9668L58.5693 43.9629C60.1653 42.107 61.1318 39.6925 61.1318 37.0527C61.1318 31.1956 56.3835 26.4473 50.5264 26.4473ZM32 0.5C44.3104 0.5 54.9722 7.56174 60.1543 17.8574C60.1566 18.0723 60.163 18.2716 60.1533 18.4932C60.1422 18.7459 60.1099 18.9659 60.042 19.1455C59.9773 19.3164 59.8835 19.4436 59.7422 19.5342C59.5957 19.6279 59.3538 19.7109 58.9473 19.7109C58.8683 19.7109 58.7536 19.6736 58.6006 19.5537C58.4497 19.4355 58.2989 19.2655 58.1611 19.0752C58.0255 18.8878 57.9143 18.697 57.8359 18.5518C57.7971 18.4798 57.7669 18.4205 57.7471 18.3799C57.7423 18.37 57.738 18.361 57.7344 18.3535C57.7317 18.3454 57.7296 18.3371 57.7266 18.3291L57.6982 18.2676C52.7912 9.10384 43.1241 2.86816 32 2.86816C20.794 2.86822 11.0667 9.19611 6.19434 18.4707L5.37695 20.0273L6.89062 19.1338C8.81995 17.9955 11.07 17.3418 13.4736 17.3418C20.6387 17.3418 26.4471 23.1504 26.4473 30.3154C26.4473 37.4806 20.6388 43.2891 13.4736 43.2891C7.00697 43.289 1.64437 38.5572 0.661133 32.3672L0.576172 31.832L0.500977 31.8496C0.50231 31.5642 0.50675 31.2797 0.515625 30.9961L0.516602 30.9756L0.515625 30.9561C0.505327 30.744 0.5 30.5301 0.5 30.3154C0.500028 29.2997 0.616502 28.3118 0.836914 27.3643L0.841797 27.3447L0.844727 27.3242C3.10318 12.1449 16.1921 0.500077 32 0.5ZM13.4736 19.7109C8.49307 19.711 4.31561 23.1435 3.17578 27.7715L3.16992 27.7949L3.16602 27.8193C3.01948 28.8389 2.92576 29.8762 2.8877 30.9268L2.88672 30.9512L2.88867 30.9756C3.22959 36.5256 7.83807 40.9209 13.4736 40.9209C19.3308 40.9209 24.0791 36.1726 24.0791 30.3154C24.0789 24.4584 19.3307 19.7109 13.4736 19.7109Z" fill="url(#paint0_linear_1_148)" stroke="url(#paint1_linear_1_148)"/>
<defs>
<linearGradient id="paint0_linear_1_148" x1="32" y1="0" x2="32" y2="64" gradientUnits="userSpaceOnUse">
<stop offset="0.5" stop-color="#F7A7E4"/>
<stop offset="0.5" stop-color="#1FA195"/>
</linearGradient>
<linearGradient id="paint1_linear_1_148" x1="32" y1="0" x2="32" y2="64" gradientUnits="userSpaceOnUse">
<stop offset="0.5" stop-color="#F7A7E4"/>
<stop offset="0.5" stop-color="#1FA195"/>
</linearGradient>
</defs>
</svg>
