<svg width="64" height="60" viewBox="0 0 64 60" fill="none" xmlns="http://www.w3.org/2000/svg">
<path d="M53.9405 31.6673C57.4734 31.6678 60.7484 33.5096 62.5664 36.5207C64.4779 39.6874 64.4779 43.6467 62.5664 46.8134C60.7484 49.8245 57.4734 51.6663 53.9405 51.6668H52.8762C49.7101 51.6668 46.6726 50.4157 44.4338 48.1904L43.6577 47.4189C43.0715 46.8361 42.5403 46.207 42.0661 45.5407L34.3343 56.1166C33.4404 57.338 32.2646 58.3283 30.9056 59.0039C29.5881 59.6587 28.1344 59.9999 26.6614 60H20.1217C19.1957 60 18.445 59.2538 18.445 58.3334C18.445 57.4129 19.1957 56.6667 20.1217 56.6667H26.6614C27.6138 56.6667 28.5539 56.4456 29.4057 56.0222C30.2845 55.5853 31.0448 54.9437 31.6228 54.1538L40.3174 42.266C39.9868 41.3913 39.7399 40.4824 39.5838 39.5512L38.7717 34.6978C38.635 33.8829 38.5653 33.0566 38.5653 32.2304V11.4854C38.5653 10.6824 38.4343 9.88407 38.1789 9.12218C37.5484 7.24189 36.1928 5.68615 34.4096 4.79936L33.5451 4.36968C32.177 3.68973 30.6668 3.33466 29.1372 3.33454H27.4703C25.1962 3.33474 22.9735 4.00457 21.0812 5.25833C20.0952 5.91171 19.2148 6.71164 18.4744 7.63133L13.4149 13.917V36.6672C13.4149 37.5876 12.6642 38.3338 11.7382 38.3338C10.8122 38.3338 10.0615 37.5876 10.0615 36.6672V12.8395C10.0615 10.3983 9.08621 8.05579 7.34994 6.32927C6.33314 5.31858 5.09219 4.55475 3.72801 4.10276L1.14747 3.24991C0.268976 2.95884 -0.206396 2.0138 0.0864352 1.14058C0.379267 0.267361 1.33001 -0.205157 2.20851 0.0859162L4.78905 0.942018C6.64685 1.55768 8.33615 2.59611 9.7209 3.97255C11.2116 5.45475 12.287 7.27063 12.8811 9.24262L15.8546 5.55129C16.8107 4.36335 17.9476 3.32882 19.2211 2.48495C21.6642 0.866163 24.5341 0.00147607 27.4703 0.00128259H29.1372C31.187 0.00139801 33.2081 0.476896 35.0417 1.38797L35.9062 1.81765C38.4857 3.09966 40.45 5.34797 41.362 8.06752C41.7313 9.16928 41.9187 10.3241 41.9187 11.4854V32.2304C41.9187 32.8728 41.973 33.514 42.0792 34.1477L42.8553 38.7993L43.2974 38.2003C43.7608 37.5671 44.2731 36.9702 44.83 36.4165L46.6115 34.6457C48.5296 32.7392 51.133 31.6673 53.8456 31.6673H53.9405ZM53.8456 35.0005C52.0224 35.0005 50.2717 35.721 48.9825 37.0024L47.201 38.7732C46.7679 39.2038 46.3693 39.6675 46.009 40.1599L44.1849 42.6469C44.6832 43.5264 45.3021 44.3398 46.0286 45.0622L46.8047 45.8336C48.4147 47.4339 50.5994 48.3336 52.8762 48.3336H53.9405C56.2957 48.3331 58.4792 47.1054 59.6911 45.098C60.9654 42.9868 60.9654 40.3473 59.6911 38.2361C58.4792 36.2287 56.2957 35.001 53.9405 35.0005H53.8456Z" fill="url(#paint0_linear_1_173)"/>
<defs>
<linearGradient id="paint0_linear_1_173" x1="32" y1="0" x2="32" y2="60" gradientUnits="userSpaceOnUse">
<stop offset="0.5" stop-color="#F7A7E4"/>
<stop offset="0.5" stop-color="#1FA195"/>
</linearGradient>
</defs>
</svg>
