<svg width="64" height="65" viewBox="0 0 64 65" fill="none" xmlns="http://www.w3.org/2000/svg">
<path d="M31.3311 0.5H33.877C35.8257 0.5 37.757 0.872202 39.5664 1.5957L40.0703 1.79688C44.3202 3.49622 47.4953 7.13246 48.6055 11.5713C50.0083 17.1805 49.7821 23.0734 47.9531 28.5586L45.168 36.9121L45.1621 36.9297L45.1572 36.9482L42.1807 48.8516C41.7916 50.4073 41.7528 52.03 42.0674 53.6025L42.249 54.5088C42.8541 57.5326 44.9456 60.0462 47.8096 61.1914C49.9858 62.0616 52.4136 62.0616 54.5898 61.1914L54.9395 61.0518C57.6899 59.952 59.817 57.6971 60.7539 54.8877L60.9102 54.418C61.1421 53.7224 61.8946 53.3463 62.5908 53.5781C63.287 53.8101 63.6636 54.5622 63.4316 55.2578L63.2744 55.7275C62.0904 59.2779 59.4029 62.1276 55.9268 63.5176L55.5762 63.6572C52.7665 64.7806 49.6319 64.7807 46.8223 63.6572C43.1246 62.1785 40.4246 58.933 39.6436 55.0293L39.4619 54.123C39.0702 52.165 39.1181 50.1442 39.6025 48.207L42.6074 36.1875L45.4326 27.7188C47.1017 22.7129 47.3085 17.3349 46.0283 12.2158C45.1251 8.6041 42.5416 5.6453 39.084 4.2627L38.5791 4.06152C37.0836 3.46353 35.4876 3.15625 33.877 3.15625H31.3311C28.0137 3.15632 24.8321 4.47341 22.4863 6.81836C20.5727 8.73142 19.331 11.2133 18.9482 13.8916L18.4492 17.3867C18.0265 20.3444 18.1814 23.3564 18.9062 26.2549L21.1816 35.3496C21.2969 35.8103 21.374 36.2794 21.4131 36.752L21.4277 36.9336L21.5557 37.0625C23.7477 39.2833 25.0996 42.3326 25.0996 45.6982C25.0995 52.4886 19.593 57.9932 12.7998 57.9932C6.00669 57.9931 0.500087 52.4886 0.5 45.6982C0.5 38.9078 6.00664 33.4024 12.7998 33.4023C14.4105 33.4023 15.948 33.7116 17.3564 34.2734L18.2637 34.6357L18.0264 33.6885L16.3291 26.8984C15.5209 23.6667 15.3471 20.3085 15.8184 17.0107L16.3184 13.5166C16.7824 10.2694 18.2872 7.2599 20.6074 4.94043C23.4515 2.09738 27.3089 0.50007 31.3311 0.5ZM12.7998 35.6016C7.22198 35.6016 2.7002 40.1219 2.7002 45.6982C2.70028 51.2745 7.22203 55.7949 12.7998 55.7949C18.3776 55.7949 22.8993 51.2745 22.8994 45.6982C22.8994 40.1219 18.3777 35.6016 12.7998 35.6016Z" fill="url(#paint0_linear_1_145)" stroke="url(#paint1_linear_1_145)"/>
<defs>
<linearGradient id="paint0_linear_1_145" x1="32" y1="0" x2="32" y2="65" gradientUnits="userSpaceOnUse">
<stop offset="0.5" stop-color="#F7A7E4"/>
<stop offset="0.5" stop-color="#1FA195"/>
</linearGradient>
<linearGradient id="paint1_linear_1_145" x1="32" y1="0" x2="32" y2="65" gradientUnits="userSpaceOnUse">
<stop offset="0.5" stop-color="#F7A7E4"/>
<stop offset="0.5" stop-color="#1FA195"/>
</linearGradient>
</defs>
</svg>
