<svg width="64" height="62" viewBox="0 0 64 62" fill="none" xmlns="http://www.w3.org/2000/svg">
<path d="M1.88281 58.7422H62.1172C62.8815 58.7422 63.4999 59.3606 63.5 60.1211C63.5 60.8817 62.8815 61.5 62.1172 61.5H1.88281C1.11848 61.5 0.5 60.8817 0.5 60.1211C0.500064 59.3606 1.11852 58.7422 1.88281 58.7422ZM32 0.5C46.279 0.5 57.8524 12.0531 57.8525 26.3027C57.8525 32.6192 55.58 38.4052 51.8047 42.8906L51.1123 43.7119H62.1172C62.8815 43.7119 63.5 44.3303 63.5 45.0908C63.5 45.8514 62.8815 46.4697 62.1172 46.4697H47.0586C46.2944 46.4696 45.6768 45.8513 45.6768 45.0908C45.6768 44.3304 46.2944 43.712 47.0586 43.7119V43.3447L47.2715 43.5869C52.0639 39.365 55.0879 33.1862 55.0879 26.3027C55.0877 13.5743 44.7503 3.25781 32 3.25781C19.2497 3.25781 8.91227 13.5743 8.91211 26.3027C8.91211 33.1861 11.9361 39.365 16.7285 43.5869L16.9414 43.3447V43.7119C17.7056 43.712 18.3232 44.3304 18.3232 45.0908C18.3232 45.8513 17.7056 46.4696 16.9414 46.4697H1.88281C1.11848 46.4697 0.5 45.8514 0.5 45.0908C0.500048 44.3303 1.11851 43.7119 1.88281 43.7119H12.8877L12.1953 42.8906C8.41998 38.4052 6.14746 32.6192 6.14746 26.3027C6.14762 12.0531 17.721 0.5 32 0.5Z" fill="url(#paint0_linear_1_139)" stroke="url(#paint1_linear_1_139)"/>
<defs>
<linearGradient id="paint0_linear_1_139" x1="32" y1="0" x2="32" y2="62" gradientUnits="userSpaceOnUse">
<stop offset="0.5" stop-color="#F7A7E4"/>
<stop offset="0.5" stop-color="#1FA195"/>
</linearGradient>
<linearGradient id="paint1_linear_1_139" x1="32" y1="0" x2="32" y2="62" gradientUnits="userSpaceOnUse">
<stop offset="0.5" stop-color="#F7A7E4"/>
<stop offset="0.5" stop-color="#1FA195"/>
</linearGradient>
</defs>
</svg>
