<svg width="64" height="89" viewBox="0 0 64 89" fill="none" xmlns="http://www.w3.org/2000/svg">
<path d="M6.28378 0.261538C7.49973 -0.349067 8.97831 0.145926 9.58628 1.36713L14.7323 11.7037C19.109 20.495 21.5845 29.9768 22.1454 39.5556H41.8546C42.4155 29.9768 44.891 20.495 49.2677 11.7037L54.4137 1.36713C55.0217 0.145926 56.5003 -0.349067 57.7162 0.261538C58.9322 0.872142 59.425 2.35712 58.8171 3.57833L53.671 13.9149C49.6404 22.011 47.3416 30.7362 46.7868 39.5556H61.5385C62.8979 39.5556 64 40.6624 64 42.0278C64 43.3931 62.8979 44.5 61.5385 44.5H46.6585C46.7567 53.485 48.6605 62.4642 52.3827 70.8754L58.8648 85.5231C59.4169 86.7708 58.8574 88.2318 57.6151 88.7863C56.3728 89.3408 54.9181 88.7789 54.366 87.5312L47.8839 72.8835C43.8785 63.8323 41.8335 54.1687 41.7351 44.5H22.2649C22.1665 54.1687 20.1215 63.8323 16.116 72.8835L9.634 87.5312C9.08187 88.7789 7.62719 89.3408 6.38489 88.7863C5.14259 88.2318 4.5831 86.7708 5.13523 85.5231L11.6173 70.8754C15.3395 62.4642 17.2433 53.485 17.3415 44.5H2.46154C1.10207 44.5 0 43.3931 0 42.0278C0 40.6624 1.10207 39.5556 2.46154 39.5556H17.2132C16.6584 30.7362 14.3596 22.011 10.329 13.9149L5.18295 3.57833C4.57498 2.35712 5.06783 0.872142 6.28378 0.261538Z" fill="url(#paint0_linear_1_124)"/>
<defs>
<linearGradient id="paint0_linear_1_124" x1="32" y1="0" x2="32" y2="89" gradientUnits="userSpaceOnUse">
<stop offset="0.5" stop-color="#F7A7E4"/>
<stop offset="0.5" stop-color="#1FA195"/>
</linearGradient>
</defs>
</svg>
