<svg width="64" height="64" viewBox="0 0 64 64" fill="none" xmlns="http://www.w3.org/2000/svg">
<path d="M63.8572 1.16182C63.7653 0.939805 63.6291 0.731803 63.4487 0.551329L62.1176 0H32C30.9604 0 30.1176 0.842757 30.1176 1.88235C30.1176 2.92195 30.9604 3.76471 32 3.76471H57.5732L22.5882 38.7497L10.7428 26.9043C10.0077 26.1692 8.81585 26.1692 8.08074 26.9043C7.34564 27.6394 7.34564 28.8312 8.08074 29.5663L19.9262 41.4118L0.551328 60.7866C-0.183776 61.5217 -0.183776 62.7136 0.551328 63.4487C1.28643 64.1838 2.47827 64.1838 3.21338 63.4487L22.5882 44.0738L34.4337 55.9193C35.1688 56.6544 36.3606 56.6544 37.0957 55.9193C37.8308 55.1842 37.8308 53.9923 37.0957 53.2572L25.2503 41.4118L60.2353 6.42676V30.1176C60.2353 31.1572 61.0781 32 62.1176 32C63.1572 32 64 31.1572 64 30.1176V1.88235C64 1.62713 63.9492 1.38376 63.8572 1.16182Z" fill="url(#paint0_linear_1_133)"/>
<defs>
<linearGradient id="paint0_linear_1_133" x1="32" y1="0" x2="32" y2="64" gradientUnits="userSpaceOnUse">
<stop offset="0.5" stop-color="#F7A7E4"/>
<stop offset="0.5" stop-color="#1FA195"/>
</linearGradient>
</defs>
</svg>
