<svg width="64" height="64" viewBox="0 0 64 64" fill="none" xmlns="http://www.w3.org/2000/svg">
<path d="M3.26424 0.691922C2.63187 -0.103086 1.47843 -0.231982 0.687967 0.404024C-0.102496 1.04003 -0.230656 2.2001 0.401715 2.99511L7.3317 11.7074V49.7731H10.9975V11.7313L16.9441 4.59831C17.6781 3.71788 19.0254 3.71993 19.7568 4.60259L25.6608 11.7282V49.7731H29.3266V11.7282L35.2502 4.57903C35.9829 3.69463 37.3335 3.69463 38.0663 4.57903L43.565 11.2154C43.8395 11.5467 43.9899 11.9643 43.9899 12.3956V40.5496L43.9899 40.5559V49.2149C43.9899 51.1448 44.5578 53.0316 45.6222 54.6374C47.4249 57.3568 50.4596 58.9903 53.7094 58.9903H56.8202V63.6306C56.8202 63.959 57.2151 64.1235 57.446 63.8913L63.8926 57.4076C64.0358 57.2636 64.0358 57.0302 63.8926 56.8862L57.446 50.4025C57.2151 50.1702 56.8202 50.3347 56.8202 50.6632V55.3034H53.7094C51.6853 55.3034 49.7951 54.286 48.6724 52.5922C48.0094 51.5921 47.6557 50.417 47.6557 49.2149L47.6557 12.3956C47.6557 11.1018 47.2047 9.84903 46.3812 8.85515L40.8825 2.21874C38.6841 -0.434459 34.6324 -0.434467 32.434 2.21874L27.4937 8.18119L22.5729 2.2423C20.3789 -0.405683 16.3371 -0.411831 14.1351 2.22947L9.1979 8.15165L3.26424 0.691922Z" fill="url(#paint0_linear_1_136)"/>
<defs>
<linearGradient id="paint0_linear_1_136" x1="32" y1="0" x2="32" y2="64" gradientUnits="userSpaceOnUse">
<stop offset="0.5" stop-color="#F7A7E4"/>
<stop offset="0.5" stop-color="#1FA195"/>
</linearGradient>
</defs>
</svg>
