<svg width="64" height="57" viewBox="0 0 64 57" fill="none" xmlns="http://www.w3.org/2000/svg">
<path fill-rule="evenodd" clip-rule="evenodd" d="M0 1.67647C0 0.750581 0.754047 0 1.68421 0H2.97441C7.97287 0 12.8225 1.69334 16.7256 4.8015C18.7687 6.42844 20.504 8.40491 21.8502 10.6381L23.311 13.0617C24.5122 15.0546 25.4908 17.1723 26.2291 19.3771L26.7305 20.8743C28.4007 20.382 30.1693 20.1176 32 20.1176C33.8307 20.1176 35.5993 20.382 37.2695 20.8743L37.7709 19.3771C38.5092 17.1723 39.4878 15.0546 40.689 13.0617L42.1499 10.6381C43.496 8.40491 45.2313 6.42844 47.2744 4.8015C51.1775 1.69334 56.0271 0 61.0256 0H62.3158C63.246 0 64 0.750581 64 1.67647C64 2.60236 63.246 3.35294 62.3158 3.35294H61.0256C56.792 3.35294 52.6845 4.78716 49.3786 7.41971C47.6482 8.79769 46.1784 10.4717 45.0382 12.3632L43.5774 14.7868C42.5026 16.5699 41.6271 18.4647 40.9665 20.4374L40.4032 22.1194C46.4115 25.1685 50.5263 31.3853 50.5263 38.5588C50.5263 48.7436 42.2318 57 32 57C21.7682 57 13.4737 48.7436 13.4737 38.5588C13.4737 31.3853 17.5885 25.1685 23.5968 22.1194L23.0335 20.4374C22.3729 18.4647 21.4974 16.5699 20.4226 14.7868L18.9618 12.3632C17.8216 10.4717 16.3518 8.79769 14.6214 7.41971C11.3155 4.78716 7.208 3.35294 2.97441 3.35294H1.68421C0.754047 3.35294 0 2.60236 0 1.67647ZM32 53.6471C40.3715 53.6471 47.1579 46.8918 47.1579 38.5588C47.1579 30.2258 40.3715 23.4706 32 23.4706C23.6285 23.4706 16.8421 30.2258 16.8421 38.5588C16.8421 46.8918 23.6285 53.6471 32 53.6471Z" fill="url(#paint0_linear_1_154)"/>
<defs>
<linearGradient id="paint0_linear_1_154" x1="32" y1="0" x2="32" y2="57" gradientUnits="userSpaceOnUse">
<stop offset="0.5" stop-color="#F7A7E4"/>
<stop offset="0.5" stop-color="#1FA195"/>
</linearGradient>
</defs>
</svg>
