<svg width="64" height="58" viewBox="0 0 64 58" fill="none" xmlns="http://www.w3.org/2000/svg">
<path fill-rule="evenodd" clip-rule="evenodd" d="M0.657988 0.385203C1.41401 -0.221175 2.51718 -0.0982835 3.12199 0.659689L8.7971 7.77191L13.5191 2.12561C15.6252 -0.392646 19.4908 -0.386784 21.5893 2.13784L26.2956 7.80007L31.0207 2.11538C33.1232 -0.414227 36.9984 -0.41422 39.101 2.11538L44.3601 8.44263C45.1477 9.39022 45.579 10.5847 45.579 11.8181V15.1257C46.7522 13.9983 47.769 13.0943 48.7236 12.4107C50.5312 11.1163 52.1978 10.5455 54.3442 10.5455C55.7307 10.5455 57.3039 11.2015 58.7031 12.2854C60.143 13.401 61.5281 15.0635 62.5201 17.3013C64.5172 21.8065 64.8587 28.469 61.231 37.5618C58.5836 44.1974 54.3681 48.6239 49.9475 51.4946C51.7982 52.9518 54.3983 54.0894 58.0439 54.4955C59.0061 54.6027 59.6995 55.4716 59.5926 56.4364C59.4857 57.4011 58.619 58.0963 57.6567 57.9891C52.7029 57.4373 49.1561 55.6678 46.703 53.3235C42.2288 55.4922 37.8831 56.2423 35.0608 56.2423C34.0926 56.2423 33.3078 55.4554 33.3078 54.4847C33.3078 53.514 34.0926 52.7271 35.0608 52.7271C37.3122 52.7271 40.7689 52.152 44.4137 50.5181C44.4097 50.5117 44.4056 50.5052 44.4015 50.4987C42.1774 46.9504 41.7654 42.9849 42.073 40.3188V11.8181C42.073 11.407 41.9292 11.0088 41.6666 10.693L36.4075 4.36572C35.7067 3.52251 34.415 3.52252 33.7141 4.36572L28.0487 11.1818V47.4545C28.0487 48.4251 27.2638 49.212 26.2956 49.212C25.3275 49.212 24.5426 48.4251 24.5426 47.4545V11.1818L18.8958 4.38818C18.1964 3.54664 16.9078 3.54468 16.2058 4.3841L10.5183 11.1848V47.4544C10.5183 48.4251 9.73343 49.212 8.76525 49.212C7.79708 49.212 7.01221 48.4251 7.01221 47.4544V11.162L0.38421 2.85558C-0.220605 2.09761 -0.0980301 0.991581 0.657988 0.385203ZM45.579 40.4464C45.5793 40.4301 45.5793 40.4138 45.579 40.3975L45.579 20.0616C47.9562 17.6808 49.4659 16.1989 50.7614 15.2711C52.0217 14.3686 52.9846 14.0606 54.3442 14.0606C54.7108 14.0606 55.548 14.2834 56.5593 15.0669C57.5298 15.8187 58.5552 17.0122 59.3162 18.729C60.8251 22.1328 61.3601 27.7733 57.9757 36.2563C55.5375 42.3675 51.5923 46.3523 47.5251 48.8689C47.4721 48.7889 47.4205 48.7087 47.3701 48.6283C46.0202 46.4748 45.5286 44.0878 45.491 42.1817H45.579V40.4464Z" fill="url(#paint0_linear_1_142)"/>
<defs>
<linearGradient id="paint0_linear_1_142" x1="32" y1="0" x2="32" y2="58" gradientUnits="userSpaceOnUse">
<stop offset="0.5" stop-color="#F7A7E4"/>
<stop offset="0.5" stop-color="#1FA195"/>
</linearGradient>
</defs>
</svg>
